<svg t="1575196886565" class="icon" viewBox="0 0 1024 1024" version="1.1" xmlns="http://www.w3.org/2000/svg" p-id="6812" width="200" height="200"><path d="M0.268659 965.467729l210.05672 0 0-453.141101L0.268659 512.326629 0.268659 965.467729zM1001.748882 710.444617c13.251043-17.407861 20.987981-42.077909 20.987981-71.177632 0-29.279628-7.839884-54.117588-21.208865-71.501462 9.824842-13.77077 15.534844-31.955224 15.534844-52.618375 0-28.656955-11.265086-57.092027-30.855801-77.935084-16.650259-17.698708-47.293171-38.753654-98.880088-38.753654l-151.712351 0c-76.40089 0-107.98031-5.870918-120.370805-9.671922 0.366807-0.963494 0.81857-2.044926 1.21836-3.357237 9.459034-24.915919 26.943854-71.280578 26.943854-244.234777 0-48.835361-31.443492-141.196872-150.55196-141.196872-31.672372 0-66.8569 2.999425-87.708953 25.265735-23.202819 24.677045-18.516279 59.418805-11.938732 107.537543 4.379701 32.124135 9.782864 72.106144 9.782864 122.253817C402.937258 410.132281 263.513455 517.304015 262.124185 518.34347l-10.907274 8.248669 0 419.260888 4.328727 6.62952c10.770346 16.386397 72.480948 69.916294 412.938207 69.916294l218.842108 0c51.586917 0 82.229829-21.055946 98.880088-38.737663 19.589715-20.912021 30.855801-49.278129 30.855801-77.960071 0-20.663152-5.710002-38.823618-15.534844-52.626371 13.369981-17.399865 21.208865-42.205842 21.208865-71.519452C1022.735864 752.497539 1014.998926 727.82849 1001.748882 710.444617z" p-id="6813"></path></svg>